<svg width="6" height="7" viewBox="0 0 6 7" fill="none" xmlns="http://www.w3.org/2000/svg">
<path d="M3.78652 2.98784C3.87977 2.98784 3.95898 2.95573 4.02413 2.89152C4.08929 2.82731 4.12187 2.7487 4.12187 2.65568C4.12187 2.56267 4.08976 2.48359 4.02555 2.41843C3.96134 2.35327 3.88272 2.32069 3.78971 2.32069C3.6967 2.32069 3.61761 2.3528 3.55246 2.41701C3.4873 2.48122 3.4546 2.55984 3.45437 2.65285C3.45413 2.74586 3.48635 2.82495 3.55104 2.89011C3.61572 2.95526 3.69398 2.98784 3.78652 2.98784ZM2.09776 2.98784C2.19101 2.98784 2.2701 2.95573 2.33502 2.89152C2.40041 2.82731 2.43311 2.7487 2.43311 2.65568C2.43311 2.56267 2.40088 2.48359 2.33643 2.41843C2.27199 2.35327 2.19337 2.32069 2.1006 2.32069C2.00782 2.32069 1.92873 2.3528 1.86334 2.41701C1.79795 2.48122 1.76537 2.55984 1.76561 2.65285C1.76584 2.74586 1.79795 2.82495 1.86192 2.89011C1.9259 2.95526 2.00451 2.98784 2.09776 2.98784ZM2.94374 4.68368C3.22986 4.68368 3.49214 4.61239 3.73057 4.4698C3.96901 4.32721 4.1607 4.13516 4.30565 3.89366H1.58182C1.72654 4.13516 1.91823 4.32721 2.1569 4.4698C2.39533 4.61239 2.65761 4.68368 2.94374 4.68368ZM2.94409 6.01833C2.55103 6.01833 2.18275 5.94444 1.83926 5.79666C1.49577 5.64888 1.19584 5.44656 0.939462 5.18971C0.683085 4.93286 0.480887 4.63305 0.332868 4.29027C0.184849 3.94748 0.11084 3.57921 0.11084 3.18544C0.11084 2.79166 0.184731 2.42339 0.332514 2.08061C0.480297 1.73783 0.682613 1.43801 0.939462 1.18116C1.19631 0.924312 1.49613 0.721996 1.83891 0.574213C2.18169 0.42643 2.54996 0.352539 2.94374 0.352539C3.33751 0.352539 3.70579 0.42643 4.04857 0.574213C4.39135 0.721996 4.69116 0.924312 4.94801 1.18116C5.20486 1.43801 5.40706 1.73783 5.55461 2.08061C5.70215 2.42339 5.77616 2.79166 5.77663 3.18544C5.77711 3.57921 5.70321 3.94748 5.55496 4.29027C5.4067 4.63305 5.20439 4.9331 4.94801 5.19042C4.69163 5.44774 4.39182 5.64994 4.04857 5.79701C3.70531 5.94409 3.33739 6.01786 2.94409 6.01833ZM3.08538 1.83698C3.18571 1.83698 3.28121 1.82234 3.37186 1.79307C3.46227 1.76379 3.50748 1.70891 3.50748 1.6284C3.50748 1.58638 3.49426 1.54956 3.46782 1.51792C3.44138 1.48629 3.40833 1.47059 3.36867 1.47083C3.32146 1.47083 3.27908 1.47968 3.24154 1.49738C3.20401 1.51509 3.15266 1.52394 3.08751 1.52394C2.935 1.52394 2.80457 1.46976 2.69621 1.3614C2.58785 1.25328 2.53367 1.12356 2.53367 0.972235C2.53367 0.9118 2.53604 0.865175 2.54076 0.832361C2.54548 0.79931 2.55728 0.767204 2.57617 0.736043C2.51833 0.747846 2.46356 0.757997 2.41186 0.766496C2.36016 0.774995 2.30681 0.788687 2.2518 0.807573C2.24141 0.834249 2.23362 0.861634 2.22843 0.889727C2.22324 0.91782 2.22064 0.945323 2.22064 0.972235C2.22064 1.21067 2.30515 1.4144 2.47418 1.58343C2.64345 1.75246 2.84718 1.83698 3.08538 1.83698Z" fill="#FF5500"/>
</svg>
