<svg width="12" height="12" viewBox="0 0 12 12" fill="none" xmlns="http://www.w3.org/2000/svg">
<path d="M6.48779 0.221191C6.40161 0.221191 6.31543 0.223521 6.22925 0.22748L6.24788 0.646273C6.32708 0.642546 6.40627 0.64045 6.48779 0.64045C9.2549 0.64045 11.4956 2.88115 11.4956 5.64826C11.4956 8.41537 9.2549 10.6561 6.48779 10.6561C4.40082 10.6561 2.61315 9.38199 1.86081 7.56753L2.50437 7.37421L1.37633 6.57529L0.932617 7.84471L1.45785 7.68865C2.26446 9.67314 4.21448 11.0753 6.48779 11.0753C9.48316 11.0753 11.9149 8.64363 11.9149 5.64826C11.9149 2.65289 9.48316 0.221191 6.48779 0.221191ZM5.77039 0.268707C5.46061 0.309469 5.16247 0.375851 4.87132 0.466225L5.00175 0.864287C5.26728 0.781833 5.54446 0.721041 5.8263 0.683773L5.77039 0.268707ZM4.44274 0.620885C4.15392 0.73851 3.87907 0.879893 3.6182 1.04294L3.83948 1.39721C4.07939 1.24721 4.33327 1.11701 4.5988 1.00893L4.44274 0.620885ZM3.23621 1.30428C2.99168 1.48755 2.763 1.69106 2.55259 1.91267L2.85655 2.19869C3.04987 1.99442 3.26183 1.80715 3.48544 1.63829L3.37363 1.48526L3.23621 1.30428ZM4.85501 1.50412L4.75253 1.91034L9.80692 3.20259L9.90941 2.7973L4.85501 1.50412ZM2.25025 2.25925C2.05949 2.49683 1.88829 2.75305 1.73922 3.02091L2.10375 3.22588C2.2414 2.97665 2.39932 2.7414 2.57564 2.52013L2.25025 2.25925ZM5.22303 2.46422C5.13219 3.06982 5.28825 3.74995 5.55378 4.30896C5.70285 4.62108 5.88453 4.89592 6.06388 5.09624C6.1617 5.20571 6.25953 5.28956 6.34804 5.35012L6.22226 5.84391C6.11512 5.85323 5.98934 5.88118 5.84959 5.9301C5.5957 6.01861 5.30455 6.17233 5.02505 6.37498C4.52194 6.73833 4.06075 7.25775 3.85112 7.83306L7.75256 8.8323C7.8434 8.2267 7.68734 7.54657 7.42181 6.98756C7.27274 6.67544 7.09106 6.4006 6.91171 6.20028C6.81388 6.09081 6.71606 6.00696 6.62755 5.9464L6.75332 5.45261C6.85814 5.44096 6.98624 5.41534 7.126 5.36643C7.37988 5.27792 7.67103 5.12419 7.95054 4.92155C8.45365 4.55819 8.91483 4.03877 9.12446 3.46346L5.22303 2.46422ZM1.53216 3.43318C1.40801 3.71268 1.30622 4.00151 1.22936 4.30197L1.63651 4.3998C1.70708 4.12495 1.80048 3.85942 1.91485 3.60321L1.53216 3.43318ZM1.13526 4.75151C1.08658 5.04266 1.06072 5.34313 1.06072 5.64826V5.66922L1.47998 5.66457V5.64826C1.47998 5.36643 1.50374 5.08925 1.54869 4.81906L1.13526 4.75151ZM3.16866 8.09394L3.06618 8.49922L8.12057 9.79193L8.22306 9.38665L3.16866 8.09394Z" fill="black"/>
</svg>
